<mxfile host="65bd71144e">
    <diagram id="v_3Dd8qM4oorIxEH6kWa" name="Page-1">
        <mxGraphModel dx="896" dy="604" grid="1" gridSize="10" guides="1" tooltips="1" connect="1" arrows="1" fold="1" page="1" pageScale="1" pageWidth="850" pageHeight="1100" math="1" shadow="0">
            <root>
                <mxCell id="0"/>
                <mxCell id="1" parent="0"/>
                <mxCell id="62" style="edgeStyle=none;shape=link;html=1;exitX=0.5;exitY=1;exitDx=0;exitDy=0;entryX=0.5;entryY=0;entryDx=0;entryDy=0;fontSize=12;fontFamily=FiraCode Nerd Font Propo;" parent="1" source="22" target="51" edge="1">
                    <mxGeometry relative="1" as="geometry"/>
                </mxCell>
                <mxCell id="75" value="1,1" style="edgeLabel;html=1;align=center;verticalAlign=middle;resizable=0;points=[];fontSize=12;fontFamily=FiraCode Nerd Font Propo;" parent="62" vertex="1" connectable="0">
                    <mxGeometry x="-0.2518" y="-3" relative="1" as="geometry">
                        <mxPoint x="3" y="6" as="offset"/>
                    </mxGeometry>
                </mxCell>
                <mxCell id="22" value="Commande" style="swimlane;fontStyle=0;childLayout=stackLayout;horizontal=1;startSize=30;horizontalStack=0;resizeParent=1;resizeParentMax=0;resizeLast=0;collapsible=1;marginBottom=0;whiteSpace=wrap;html=1;fontFamily=FiraCode Nerd Font Propo;" parent="1" vertex="1">
                    <mxGeometry x="350" y="350" width="140" height="90" as="geometry"/>
                </mxCell>
                <mxCell id="23" value="&lt;u&gt;Numéro de commande&lt;/u&gt;" style="text;strokeColor=none;fillColor=none;align=left;verticalAlign=middle;spacingLeft=4;spacingRight=4;overflow=hidden;points=[[0,0.5],[1,0.5]];portConstraint=eastwest;rotatable=0;whiteSpace=wrap;html=1;fontFamily=FiraCode Nerd Font Propo;" parent="22" vertex="1">
                    <mxGeometry y="30" width="140" height="30" as="geometry"/>
                </mxCell>
                <mxCell id="24" value="Date" style="text;strokeColor=none;fillColor=none;align=left;verticalAlign=middle;spacingLeft=4;spacingRight=4;overflow=hidden;points=[[0,0.5],[1,0.5]];portConstraint=eastwest;rotatable=0;whiteSpace=wrap;html=1;fontFamily=FiraCode Nerd Font Propo;" parent="22" vertex="1">
                    <mxGeometry y="60" width="140" height="30" as="geometry"/>
                </mxCell>
                <mxCell id="26" value="Client" style="swimlane;fontStyle=0;childLayout=stackLayout;horizontal=1;startSize=30;horizontalStack=0;resizeParent=1;resizeParentMax=0;resizeLast=0;collapsible=1;marginBottom=0;whiteSpace=wrap;html=1;fontFamily=FiraCode Nerd Font Propo;" parent="1" vertex="1">
                    <mxGeometry x="350" y="690" width="140" height="90" as="geometry"/>
                </mxCell>
                <mxCell id="27" value="&lt;u&gt;Numéro du client&lt;/u&gt;" style="text;strokeColor=none;fillColor=none;align=left;verticalAlign=middle;spacingLeft=4;spacingRight=4;overflow=hidden;points=[[0,0.5],[1,0.5]];portConstraint=eastwest;rotatable=0;whiteSpace=wrap;html=1;fontFamily=FiraCode Nerd Font Propo;" parent="26" vertex="1">
                    <mxGeometry y="30" width="140" height="30" as="geometry"/>
                </mxCell>
                <mxCell id="28" value="Nom" style="text;strokeColor=none;fillColor=none;align=left;verticalAlign=middle;spacingLeft=4;spacingRight=4;overflow=hidden;points=[[0,0.5],[1,0.5]];portConstraint=eastwest;rotatable=0;whiteSpace=wrap;html=1;fontFamily=FiraCode Nerd Font Propo;" parent="26" vertex="1">
                    <mxGeometry y="60" width="140" height="30" as="geometry"/>
                </mxCell>
                <mxCell id="30" value="Période" style="swimlane;fontStyle=0;childLayout=stackLayout;horizontal=1;startSize=30;horizontalStack=0;resizeParent=1;resizeParentMax=0;resizeLast=0;collapsible=1;marginBottom=0;whiteSpace=wrap;html=1;fontFamily=FiraCode Nerd Font Propo;" parent="1" vertex="1">
                    <mxGeometry x="30" y="850" width="140" height="90" as="geometry"/>
                </mxCell>
                <mxCell id="31" value="&lt;u&gt;Date de début&lt;/u&gt;" style="text;strokeColor=none;fillColor=none;align=left;verticalAlign=middle;spacingLeft=4;spacingRight=4;overflow=hidden;points=[[0,0.5],[1,0.5]];portConstraint=eastwest;rotatable=0;whiteSpace=wrap;html=1;fontFamily=FiraCode Nerd Font Propo;" parent="30" vertex="1">
                    <mxGeometry y="30" width="140" height="30" as="geometry"/>
                </mxCell>
                <mxCell id="32" value="&lt;u&gt;Date de fin&lt;/u&gt;" style="text;strokeColor=none;fillColor=none;align=left;verticalAlign=middle;spacingLeft=4;spacingRight=4;overflow=hidden;points=[[0,0.5],[1,0.5]];portConstraint=eastwest;rotatable=0;whiteSpace=wrap;html=1;fontFamily=FiraCode Nerd Font Propo;" parent="30" vertex="1">
                    <mxGeometry y="60" width="140" height="30" as="geometry"/>
                </mxCell>
                <mxCell id="65" style="edgeStyle=none;shape=link;html=1;exitX=0.5;exitY=1;exitDx=0;exitDy=0;fontSize=12;fontFamily=FiraCode Nerd Font Propo;" parent="1" source="34" target="53" edge="1">
                    <mxGeometry relative="1" as="geometry"/>
                </mxCell>
                <mxCell id="76" value="0,N" style="edgeLabel;html=1;align=center;verticalAlign=middle;resizable=0;points=[];fontSize=12;fontFamily=FiraCode Nerd Font Propo;" parent="65" vertex="1" connectable="0">
                    <mxGeometry x="-0.3244" y="-1" relative="1" as="geometry">
                        <mxPoint x="1" y="43" as="offset"/>
                    </mxGeometry>
                </mxCell>
                <mxCell id="34" value="Catégorie" style="swimlane;fontStyle=0;childLayout=stackLayout;horizontal=1;startSize=30;horizontalStack=0;resizeParent=1;resizeParentMax=0;resizeLast=0;collapsible=1;marginBottom=0;whiteSpace=wrap;html=1;fontFamily=FiraCode Nerd Font Propo;" parent="1" vertex="1">
                    <mxGeometry x="30" y="230" width="140" height="90" as="geometry"/>
                </mxCell>
                <mxCell id="35" value="&lt;u&gt;Code&lt;/u&gt;" style="text;strokeColor=none;fillColor=none;align=left;verticalAlign=middle;spacingLeft=4;spacingRight=4;overflow=hidden;points=[[0,0.5],[1,0.5]];portConstraint=eastwest;rotatable=0;whiteSpace=wrap;html=1;fontFamily=FiraCode Nerd Font Propo;" parent="34" vertex="1">
                    <mxGeometry y="30" width="140" height="30" as="geometry"/>
                </mxCell>
                <mxCell id="36" value="Libellé" style="text;strokeColor=none;fillColor=none;align=left;verticalAlign=middle;spacingLeft=4;spacingRight=4;overflow=hidden;points=[[0,0.5],[1,0.5]];portConstraint=eastwest;rotatable=0;whiteSpace=wrap;html=1;fontFamily=FiraCode Nerd Font Propo;" parent="34" vertex="1">
                    <mxGeometry y="60" width="140" height="30" as="geometry"/>
                </mxCell>
                <mxCell id="58" style="edgeStyle=none;shape=link;html=1;exitX=0.5;exitY=1;exitDx=0;exitDy=0;entryX=0.5;entryY=0;entryDx=0;entryDy=0;fontSize=12;fontFamily=FiraCode Nerd Font Propo;" parent="1" source="38" target="50" edge="1">
                    <mxGeometry relative="1" as="geometry"/>
                </mxCell>
                <mxCell id="72" value="0,N" style="edgeLabel;html=1;align=center;verticalAlign=middle;resizable=0;points=[];fontSize=12;fontFamily=FiraCode Nerd Font Propo;" parent="58" vertex="1" connectable="0">
                    <mxGeometry x="-0.2548" relative="1" as="geometry">
                        <mxPoint as="offset"/>
                    </mxGeometry>
                </mxCell>
                <mxCell id="38" value="Magasin" style="swimlane;fontStyle=0;childLayout=stackLayout;horizontal=1;startSize=30;horizontalStack=0;resizeParent=1;resizeParentMax=0;resizeLast=0;collapsible=1;marginBottom=0;whiteSpace=wrap;html=1;fontFamily=FiraCode Nerd Font Propo;" parent="1" vertex="1">
                    <mxGeometry x="690" y="180" width="140" height="90" as="geometry"/>
                </mxCell>
                <mxCell id="39" value="&lt;u&gt;Numéro magasin&lt;/u&gt;" style="text;strokeColor=none;fillColor=none;align=left;verticalAlign=middle;spacingLeft=4;spacingRight=4;overflow=hidden;points=[[0,0.5],[1,0.5]];portConstraint=eastwest;rotatable=0;whiteSpace=wrap;html=1;fontFamily=FiraCode Nerd Font Propo;" parent="38" vertex="1">
                    <mxGeometry y="30" width="140" height="30" as="geometry"/>
                </mxCell>
                <mxCell id="40" value="Adresse" style="text;strokeColor=none;fillColor=none;align=left;verticalAlign=middle;spacingLeft=4;spacingRight=4;overflow=hidden;points=[[0,0.5],[1,0.5]];portConstraint=eastwest;rotatable=0;whiteSpace=wrap;html=1;fontFamily=FiraCode Nerd Font Propo;" parent="38" vertex="1">
                    <mxGeometry y="60" width="140" height="30" as="geometry"/>
                </mxCell>
                <mxCell id="54" style="edgeStyle=none;html=1;exitX=0;exitY=0.5;exitDx=0;exitDy=0;entryX=1;entryY=0.5;entryDx=0;entryDy=0;fontSize=12;shape=link;fontFamily=FiraCode Nerd Font Propo;" parent="1" source="42" target="46" edge="1">
                    <mxGeometry relative="1" as="geometry"/>
                </mxCell>
                <mxCell id="67" value="1,1" style="edgeLabel;html=1;align=center;verticalAlign=middle;resizable=0;points=[];fontSize=12;fontFamily=FiraCode Nerd Font Propo;" parent="54" vertex="1" connectable="0">
                    <mxGeometry x="0.1262" y="-1" relative="1" as="geometry">
                        <mxPoint x="7" y="1" as="offset"/>
                    </mxGeometry>
                </mxCell>
                <mxCell id="56" style="edgeStyle=none;shape=link;html=1;exitX=1;exitY=0.5;exitDx=0;exitDy=0;entryX=0;entryY=0.5;entryDx=0;entryDy=0;fontSize=12;fontFamily=FiraCode Nerd Font Propo;" parent="1" source="42" target="47" edge="1">
                    <mxGeometry relative="1" as="geometry"/>
                </mxCell>
                <mxCell id="70" value="0,N" style="edgeLabel;html=1;align=center;verticalAlign=middle;resizable=0;points=[];fontSize=12;fontFamily=FiraCode Nerd Font Propo;" parent="56" vertex="1" connectable="0">
                    <mxGeometry x="-0.1523" y="2" relative="1" as="geometry">
                        <mxPoint x="21" y="2" as="offset"/>
                    </mxGeometry>
                </mxCell>
                <mxCell id="60" style="edgeStyle=none;shape=link;html=1;exitX=0.5;exitY=1;exitDx=0;exitDy=0;entryX=0.5;entryY=0;entryDx=0;entryDy=0;fontSize=12;fontFamily=FiraCode Nerd Font Propo;" parent="1" source="42" target="52" edge="1">
                    <mxGeometry relative="1" as="geometry"/>
                </mxCell>
                <mxCell id="69" value="0,N" style="edgeLabel;html=1;align=center;verticalAlign=middle;resizable=0;points=[];fontSize=12;fontFamily=FiraCode Nerd Font Propo;" parent="60" vertex="1" connectable="0">
                    <mxGeometry x="-0.228" y="-1" relative="1" as="geometry">
                        <mxPoint as="offset"/>
                    </mxGeometry>
                </mxCell>
                <mxCell id="42" value="Matériel" style="swimlane;fontStyle=0;childLayout=stackLayout;horizontal=1;startSize=30;horizontalStack=0;resizeParent=1;resizeParentMax=0;resizeLast=0;collapsible=1;marginBottom=0;whiteSpace=wrap;html=1;fontFamily=FiraCode Nerd Font Propo;" parent="1" vertex="1">
                    <mxGeometry x="350" y="35" width="140" height="90" as="geometry"/>
                </mxCell>
                <mxCell id="43" value="&lt;u&gt;Numéro du matériel&lt;/u&gt;" style="text;strokeColor=none;fillColor=none;align=left;verticalAlign=middle;spacingLeft=4;spacingRight=4;overflow=hidden;points=[[0,0.5],[1,0.5]];portConstraint=eastwest;rotatable=0;whiteSpace=wrap;html=1;fontFamily=FiraCode Nerd Font Propo;" parent="42" vertex="1">
                    <mxGeometry y="30" width="140" height="30" as="geometry"/>
                </mxCell>
                <mxCell id="44" value="Nom" style="text;strokeColor=none;fillColor=none;align=left;verticalAlign=middle;spacingLeft=4;spacingRight=4;overflow=hidden;points=[[0,0.5],[1,0.5]];portConstraint=eastwest;rotatable=0;whiteSpace=wrap;html=1;fontFamily=FiraCode Nerd Font Propo;" parent="42" vertex="1">
                    <mxGeometry y="60" width="140" height="30" as="geometry"/>
                </mxCell>
                <mxCell id="55" style="edgeStyle=none;shape=link;html=1;exitX=0.5;exitY=1;exitDx=0;exitDy=0;entryX=0.5;entryY=0;entryDx=0;entryDy=0;fontSize=12;fontFamily=FiraCode Nerd Font Propo;" parent="1" source="46" target="34" edge="1">
                    <mxGeometry relative="1" as="geometry"/>
                </mxCell>
                <mxCell id="68" value="0,N" style="edgeLabel;html=1;align=center;verticalAlign=middle;resizable=0;points=[];fontSize=12;fontFamily=FiraCode Nerd Font Propo;" parent="55" vertex="1" connectable="0">
                    <mxGeometry x="-0.3151" y="3" relative="1" as="geometry">
                        <mxPoint x="-3" y="22" as="offset"/>
                    </mxGeometry>
                </mxCell>
                <mxCell id="46" value="Est Classé" style="ellipse;whiteSpace=wrap;html=1;fontFamily=FiraCode Nerd Font Propo;" parent="1" vertex="1">
                    <mxGeometry x="40" y="40" width="120" height="80" as="geometry"/>
                </mxCell>
                <mxCell id="57" style="edgeStyle=none;shape=link;html=1;exitX=0.5;exitY=1;exitDx=0;exitDy=0;entryX=0.5;entryY=0;entryDx=0;entryDy=0;fontSize=12;fontFamily=FiraCode Nerd Font Propo;" parent="1" source="47" target="38" edge="1">
                    <mxGeometry relative="1" as="geometry"/>
                </mxCell>
                <mxCell id="71" value="1,N" style="edgeLabel;html=1;align=center;verticalAlign=middle;resizable=0;points=[];fontSize=12;fontFamily=FiraCode Nerd Font Propo;" parent="57" vertex="1" connectable="0">
                    <mxGeometry x="-0.411" y="-4" relative="1" as="geometry">
                        <mxPoint x="4" y="12" as="offset"/>
                    </mxGeometry>
                </mxCell>
                <mxCell id="47" value="&lt;font style=&quot;&quot;&gt;&lt;span style=&quot;font-size: 14px;&quot;&gt;Est stocké&lt;/span&gt;&lt;br&gt;&lt;br&gt;&lt;font style=&quot;font-size: 12px;&quot;&gt;Quantité&lt;/font&gt;&lt;br&gt;&lt;/font&gt;" style="ellipse;whiteSpace=wrap;html=1;fontFamily=FiraCode Nerd Font Propo;" parent="1" vertex="1">
                    <mxGeometry x="700" y="40" width="120" height="80" as="geometry"/>
                </mxCell>
                <mxCell id="59" style="edgeStyle=none;shape=link;html=1;exitX=0;exitY=0.5;exitDx=0;exitDy=0;fontSize=12;fontFamily=FiraCode Nerd Font Propo;" parent="1" source="50" target="22" edge="1">
                    <mxGeometry relative="1" as="geometry"/>
                </mxCell>
                <mxCell id="73" value="1,1" style="edgeLabel;html=1;align=center;verticalAlign=middle;resizable=0;points=[];fontSize=12;fontFamily=FiraCode Nerd Font Propo;" parent="59" vertex="1" connectable="0">
                    <mxGeometry x="0.1714" relative="1" as="geometry">
                        <mxPoint x="23" as="offset"/>
                    </mxGeometry>
                </mxCell>
                <mxCell id="50" value="Approvisionnement" style="ellipse;whiteSpace=wrap;html=1;fontFamily=FiraCode Nerd Font Propo;" parent="1" vertex="1">
                    <mxGeometry x="700" y="355" width="120" height="80" as="geometry"/>
                </mxCell>
                <mxCell id="63" style="edgeStyle=none;shape=link;html=1;exitX=0.5;exitY=1;exitDx=0;exitDy=0;entryX=0.5;entryY=0;entryDx=0;entryDy=0;fontSize=12;fontFamily=FiraCode Nerd Font Propo;" parent="1" source="51" target="26" edge="1">
                    <mxGeometry relative="1" as="geometry"/>
                </mxCell>
                <mxCell id="51" value="Passe" style="ellipse;whiteSpace=wrap;html=1;fontFamily=FiraCode Nerd Font Propo;" parent="1" vertex="1">
                    <mxGeometry x="360" y="530" width="120" height="80" as="geometry"/>
                </mxCell>
                <mxCell id="61" style="edgeStyle=none;shape=link;html=1;exitX=0.5;exitY=1;exitDx=0;exitDy=0;entryX=0.5;entryY=0;entryDx=0;entryDy=0;fontSize=12;fontFamily=FiraCode Nerd Font Propo;" parent="1" source="52" target="22" edge="1">
                    <mxGeometry relative="1" as="geometry"/>
                </mxCell>
                <mxCell id="74" value="1,N" style="edgeLabel;html=1;align=center;verticalAlign=middle;resizable=0;points=[];fontSize=12;fontFamily=FiraCode Nerd Font Propo;" parent="61" vertex="1" connectable="0">
                    <mxGeometry x="-0.4532" y="-4" relative="1" as="geometry">
                        <mxPoint x="4" y="6" as="offset"/>
                    </mxGeometry>
                </mxCell>
                <mxCell id="52" value="&lt;font style=&quot;&quot;&gt;&lt;span style=&quot;font-size: 14px;&quot;&gt;Concerne&lt;/span&gt;&lt;br&gt;&lt;br&gt;&lt;font style=&quot;font-size: 12px;&quot;&gt;Quantité&lt;/font&gt;&lt;br&gt;&lt;/font&gt;" style="ellipse;whiteSpace=wrap;html=1;fontFamily=FiraCode Nerd Font Propo;" parent="1" vertex="1">
                    <mxGeometry x="360" y="220" width="120" height="80" as="geometry"/>
                </mxCell>
                <mxCell id="64" style="edgeStyle=none;shape=link;html=1;exitX=1;exitY=0.5;exitDx=0;exitDy=0;fontSize=12;fontFamily=FiraCode Nerd Font Propo;" parent="1" source="53" target="26" edge="1">
                    <mxGeometry relative="1" as="geometry"/>
                </mxCell>
                <mxCell id="77" value="1,N" style="edgeLabel;html=1;align=center;verticalAlign=middle;resizable=0;points=[];fontSize=12;fontFamily=FiraCode Nerd Font Propo;" parent="64" vertex="1" connectable="0">
                    <mxGeometry x="-0.1741" y="-2" relative="1" as="geometry">
                        <mxPoint as="offset"/>
                    </mxGeometry>
                </mxCell>
                <mxCell id="66" style="edgeStyle=none;shape=link;html=1;exitX=0.5;exitY=1;exitDx=0;exitDy=0;entryX=0.5;entryY=0;entryDx=0;entryDy=0;fontSize=12;fontFamily=FiraCode Nerd Font Propo;" parent="1" source="53" target="30" edge="1">
                    <mxGeometry relative="1" as="geometry"/>
                </mxCell>
                <mxCell id="78" value="1,N" style="edgeLabel;html=1;align=center;verticalAlign=middle;resizable=0;points=[];fontSize=12;fontFamily=FiraCode Nerd Font Propo;" parent="66" vertex="1" connectable="0">
                    <mxGeometry x="-0.201" y="-2" relative="1" as="geometry">
                        <mxPoint as="offset"/>
                    </mxGeometry>
                </mxCell>
                <mxCell id="53" value="&lt;font style=&quot;&quot;&gt;&lt;span style=&quot;font-size: 14px;&quot;&gt;Peut commander&lt;/span&gt;&lt;br&gt;&lt;br&gt;&lt;font style=&quot;font-size: 12px;&quot;&gt;Droit d'approvisionnement&lt;/font&gt;&lt;br&gt;&lt;/font&gt;" style="ellipse;whiteSpace=wrap;html=1;fontFamily=FiraCode Nerd Font Propo;" parent="1" vertex="1">
                    <mxGeometry x="5" y="695" width="190" height="80" as="geometry"/>
                </mxCell>
            </root>
        </mxGraphModel>
    </diagram>
</mxfile>